<svg width="24" height="24" viewBox="0 0 24 24" fill="none" xmlns="http://www.w3.org/2000/svg">
<g id="european-union">
<path id="Vector" d="M12 24C18.6274 24 24 18.6274 24 12C24 5.37258 18.6274 0 12 0C5.37258 0 0 5.37258 0 12C0 18.6274 5.37258 24 12 24Z" fill="#0052B4"/>
<g id="Group">
<path id="Vector_2" d="M12.0004 4.69559L12.3889 5.89132H13.6461L12.629 6.63031L13.0175 7.82605L12.0004 7.08701L10.9832 7.82605L11.3717 6.63031L10.3546 5.89132H11.6118L12.0004 4.69559Z" fill="#FFDA44"/>
<path id="Vector_3" d="M6.83517 6.83491L7.95548 7.40566L8.84447 6.51672L8.64773 7.75844L9.768 8.32924L8.52623 8.52593L8.32954 9.76774L7.75875 8.64747L6.51703 8.84421L7.40601 7.95522L6.83517 6.83491Z" fill="#FFDA44"/>
<path id="Vector_4" d="M4.69589 11.9999L5.89163 11.6113V10.3541L6.63056 11.3713L7.82634 10.9827L7.08727 11.9999L7.82634 13.017L6.63056 12.6285L5.89163 13.6457V12.3884L4.69589 11.9999Z" fill="#FFDA44"/>
<path id="Vector_5" d="M6.83517 17.1648L7.40597 16.0445L6.51703 15.1555L7.75879 15.3523L8.3295 14.2321L8.52623 15.4738L9.76795 15.6705L8.64783 16.2413L8.84447 17.483L7.95548 16.594L6.83517 17.1648Z" fill="#FFDA44"/>
<path id="Vector_6" d="M12.0004 19.3042L11.6118 18.1085H10.3546L11.3718 17.3695L10.9832 16.1738L12.0004 16.9128L13.0175 16.1738L12.629 17.3695L13.6461 18.1085H12.3889L12.0004 19.3042Z" fill="#FFDA44"/>
<path id="Vector_7" d="M17.1654 17.1648L16.0452 16.5941L15.1561 17.4831L15.3529 16.2413L14.2327 15.6705L15.4744 15.4738L15.6711 14.2321L16.2419 15.3523L17.4836 15.1555L16.5946 16.0446L17.1654 17.1648Z" fill="#FFDA44"/>
<path id="Vector_8" d="M19.3044 11.9999L18.1087 12.3884V13.6457L17.3697 12.6285L16.1741 13.017L16.9131 11.9999L16.1741 10.9827L17.3698 11.3713L18.1087 10.3541V11.6114L19.3044 11.9999Z" fill="#FFDA44"/>
<path id="Vector_9" d="M17.1654 6.83493L16.5946 7.95524L17.4836 8.84422L16.2418 8.64744L15.6711 9.76771L15.4744 8.52594L14.2327 8.32921L15.3529 7.75846L15.1561 6.51678L16.0452 7.40572L17.1654 6.83493Z" fill="#FFDA44"/>
</g>
</g>
</svg>
