<svg width="24" height="24" viewBox="0 0 24 24" fill="none" xmlns="http://www.w3.org/2000/svg">
<g id="united-kingdom">
<path id="Vector" d="M12 24C18.6274 24 24 18.6274 24 12C24 5.37258 18.6274 0 12 0C5.37258 0 0 5.37258 0 12C0 18.6274 5.37258 24 12 24Z" fill="#F0F0F0"/>
<g id="Group">
<path id="Vector_2" d="M2.4803 4.69406C1.5377 5.92045 0.82693 7.33397 0.413071 8.86954H6.65579L2.4803 4.69406Z" fill="#0052B4"/>
<path id="Vector_3" d="M23.5867 8.86958C23.1729 7.33405 22.4621 5.92053 21.5195 4.69414L17.3441 8.86958H23.5867Z" fill="#0052B4"/>
<path id="Vector_4" d="M0.413071 15.1303C0.826977 16.6659 1.53774 18.0794 2.4803 19.3057L6.65565 15.1303H0.413071Z" fill="#0052B4"/>
<path id="Vector_5" d="M19.3056 2.48058C18.0793 1.53797 16.6658 0.827206 15.1302 0.4133V6.65597L19.3056 2.48058Z" fill="#0052B4"/>
<path id="Vector_6" d="M4.6936 21.5192C5.91999 22.4618 7.33351 23.1726 8.86904 23.5865V17.3439L4.6936 21.5192Z" fill="#0052B4"/>
<path id="Vector_7" d="M8.86899 0.4133C7.33346 0.827206 5.91995 1.53797 4.6936 2.48053L8.86899 6.65592V0.4133Z" fill="#0052B4"/>
<path id="Vector_8" d="M15.1302 23.5865C16.6658 23.1726 18.0793 22.4618 19.3056 21.5193L15.1302 17.3439V23.5865Z" fill="#0052B4"/>
<path id="Vector_9" d="M17.3441 15.1303L21.5195 19.3058C22.4621 18.0794 23.1729 16.6659 23.5867 15.1303H17.3441Z" fill="#0052B4"/>
</g>
<g id="Group_2">
<path id="Vector_10" d="M23.8984 10.4348H13.5653H13.5653V0.101578C13.0529 0.034875 12.5305 0 12 0C11.4694 0 10.9471 0.034875 10.4348 0.101578V10.4347V10.4347H0.101578C0.034875 10.9471 0 11.4695 0 12C0 12.5306 0.034875 13.0529 0.101578 13.5652H10.4347H10.4347V23.8984C10.9471 23.9651 11.4694 24 12 24C12.5305 24 13.0529 23.9652 13.5652 23.8984V13.5653V13.5653H23.8984C23.9651 13.0529 24 12.5306 24 12C24 11.4695 23.9651 10.9471 23.8984 10.4348Z" fill="#D80027"/>
<path id="Vector_11" d="M15.1302 15.1305L20.4851 20.4853C20.7313 20.2391 20.9663 19.9818 21.1904 19.7149L16.606 15.1305H15.1302V15.1305Z" fill="#D80027"/>
<path id="Vector_12" d="M8.8691 15.1306H8.869L3.51424 20.4853C3.76043 20.7316 4.01782 20.9665 4.28463 21.1907L8.8691 16.6061V15.1306Z" fill="#D80027"/>
<path id="Vector_13" d="M8.86991 8.86967V8.86958L3.5151 3.51471C3.26882 3.7609 3.03388 4.01829 2.80972 4.2851L7.39424 8.86962H8.86991V8.86967Z" fill="#D80027"/>
<path id="Vector_14" d="M15.1302 8.86956L20.4851 3.51465C20.2389 3.26837 19.9815 3.03344 19.7147 2.80933L15.1302 7.39384V8.86956Z" fill="#D80027"/>
</g>
</g>
</svg>
