<svg width="15" height="15" viewBox="0 0 15 15" fill="none" xmlns="http://www.w3.org/2000/svg">
<path id="Vector" fill-rule="evenodd" clip-rule="evenodd" d="M0 7.5C0 3.35787 3.35787 0 7.5 0C11.6421 0 15 3.35787 15 7.5C15 11.6421 11.6421 15 7.5 15C3.35787 15 0 11.6421 0 7.5ZM7.5 1.36364C4.11097 1.36364 1.36364 4.11097 1.36364 7.5C1.36364 10.889 4.11097 13.6364 7.5 13.6364C10.889 13.6364 13.6364 10.889 13.6364 7.5C13.6364 4.11097 10.889 1.36364 7.5 1.36364ZM5.45455 6.13636H6.13636H7.5H8.86364V10.2273H9.54545V11.5909H5.45455V10.2273H6.13636V7.5H5.45455V6.13636ZM8.86364 4.09091C8.86364 4.84403 8.25314 5.45455 7.5 5.45455C6.7469 5.45455 6.13636 4.84403 6.13636 4.09091C6.13636 3.33779 6.7469 2.72727 7.5 2.72727C8.25314 2.72727 8.86364 3.33779 8.86364 4.09091Z" fill="white" fill-opacity="0.5"/>
</svg>
