<svg width="40" height="50" viewBox="0 0 40 50" fill="none" xmlns="http://www.w3.org/2000/svg">
<path fill-rule="evenodd" clip-rule="evenodd" d="M27.8059 4.15736L31.6243 7.97574C31.8586 8.21006 31.8586 8.58995 31.6243 8.82427L27.8059 12.6426C27.5716 12.877 27.1917 12.877 26.9574 12.6426C26.7231 12.4083 26.7231 12.0284 26.9574 11.7941L29.7515 9.00001H23.2V7.80001H29.7515L26.9574 5.00589C26.7231 4.77158 26.7231 4.39168 26.9574 4.15736C27.1917 3.92305 27.5716 3.92305 27.8059 4.15736Z" fill="white"/>
<path fill-rule="evenodd" clip-rule="evenodd" d="M30.7758 20.8243C30.5415 20.59 30.5415 20.2101 30.7758 19.9757L34.5941 16.1574C34.8285 15.923 35.2084 15.923 35.4427 16.1574C35.677 16.3917 35.677 16.7716 35.4427 17.0059L32.6486 19.8H39.2V21H32.6486L35.4427 23.7941C35.677 24.0284 35.677 24.4083 35.4427 24.6426C35.2084 24.877 34.8285 24.877 34.5941 24.6426L30.7758 20.8243Z" fill="#FFC700"/>
<path fill-rule="evenodd" clip-rule="evenodd" d="M14.3024 7.81406C13.3527 10.0473 12.8777 12.3957 12.8777 14.8602C12.8777 19.9168 14.6613 24.2289 18.2293 27.7969C21.8227 31.3648 26.134 33.1488 31.1645 33.1488C32.6531 33.1488 34.1418 32.9691 35.6301 32.6098C33.9367 34.3039 31.9988 35.6262 29.8168 36.5758C27.5324 37.5254 25.1461 38 22.6567 38C17.6008 38 13.2887 36.2164 9.7215 32.6484C6.15392 29.0805 4.36993 24.768 4.36993 19.7113C4.36993 15.4758 5.67931 11.7027 8.29689 8.3918C10.8633 5.13164 14.1613 3.00117 18.191 2C16.5223 3.69414 15.2262 5.63203 14.3024 7.81406Z" fill="#FFC700"/>
</svg>
